STARTFONT 2.1
COMMENT -------------------------------------------
FONT -Milkjf-Fixed-Medium-R-Normal--16-150-75-75-C-80-JISX0201.1976-0
SIZE 16 75 75
FONTBOUNDINGBOX 8 16 0 -2
STARTPROPERTIES 19
FONTNAME_REGISTRY ""
FOUNDRY "Milkjf"
FAMILY_NAME "Fixed"
WEIGHT_NAME "Medium"
SLANT "R"
SETWIDTH_NAME "Normal"
ADD_STYLE_NAME ""
PIXEL_SIZE 16
POINT_SIZE 150
RESOLUTION_X 75
RESOLUTION_Y 75
SPACING "C"
AVERAGE_WIDTH 80
CHARSET_REGISTRY "JISX0201.1976"
CHARSET_ENCODING "0"
DEFAULT_CHAR 32
FONT_DESCENT 2
FONT_ASCENT 14
COPYRIGHT "Public Domain"
ENDPROPERTIES
CHARS 256
STARTCHAR 0
ENCODING 0
SWIDTH 480 0
DWIDTH 8 0
BBX 8 16 0 -2
BITMAP
00
00
00
00
00
00
00
00
00
00
00
00
00
00
00
00
ENDCHAR
STARTCHAR 1
ENCODING 1
SWIDTH 480 0
DWIDTH 8 0
BBX 8 16 0 -2
BITMAP
00
70
88
80
70
08
88
70
22
22
22
3e
22
22
22
00
ENDCHAR
STARTCHAR 2
ENCODING 2
SWIDTH 480 0
DWIDTH 8 0
BBX 8 16 0 -2
BITMAP
00
70
88
80
70
08
88
70
22
22
14
08
14
22
22
00
ENDCHAR
STARTCHAR 3
ENCODING 3
SWIDTH 480 0
DWIDTH 8 0
BBX 8 16 0 -2
BITMAP
00
f8
80
80
f0
80
80
f8
22
22
14
08
14
22
22
00
ENDCHAR
STARTCHAR 4
ENCODING 4
SWIDTH 480 0
DWIDTH 8 0
BBX 8 16 0 -2
BITMAP
00
f8
80
80
f0
80
80
f8
00
3e
08
08
08
08
08
00
ENDCHAR
STARTCHAR 5
ENCODING 5
SWIDTH 480 0
DWIDTH 8 0
BBX 8 16 0 -2
BITMAP
00
f8
80
80
f0
80
80
f8
00
1c
22
22
2a
24
1a
00
ENDCHAR
STARTCHAR 6
ENCODING 6
SWIDTH 480 0
DWIDTH 8 0
BBX 8 16 0 -2
BITMAP
00
70
88
88
f8
88
88
88
22
24
28
30
28
24
22
00
ENDCHAR
STARTCHAR 7
ENCODING 7
SWIDTH 480 0
DWIDTH 8 0
BBX 8 16 0 -2
BITMAP
00
f0
88
88
f0
88
88
f0
00
20
20
20
20
20
3e
00
ENDCHAR
STARTCHAR 8
ENCODING 8
SWIDTH 480 0
DWIDTH 8 0
BBX 8 16 0 -2
BITMAP
00
f0
88
88
f0
88
88
f0
1c
22
20
1c
02
22
1c
00
ENDCHAR
STARTCHAR 9
ENCODING 9
SWIDTH 480 0
DWIDTH 8 0
BBX 8 16 0 -2
BITMAP
00
88
88
88
f8
88
88
88
00
3e
08
08
08
08
08
00
ENDCHAR
STARTCHAR a
ENCODING 10
SWIDTH 480 0
DWIDTH 8 0
BBX 8 16 0 -2
BITMAP
00
80
80
80
80
80
f8
00
3e
20
20
3c
20
20
20
00
ENDCHAR
STARTCHAR b
ENCODING 11
SWIDTH 480 0
DWIDTH 8 0
BBX 8 16 0 -2
BITMAP
00
88
88
88
88
88
50
20
00
3e
08
08
08
08
08
00
ENDCHAR
STARTCHAR c
ENCODING 12
SWIDTH 480 0
DWIDTH 8 0
BBX 8 16 0 -2
BITMAP
00
f8
80
80
f0
80
80
80
3e
20
20
3c
20
20
20
00
ENDCHAR
STARTCHAR d
ENCODING 13
SWIDTH 480 0
DWIDTH 8 0
BBX 8 16 0 -2
BITMAP
00
70
88
80
80
88
70
00
3c
22
22
3c
28
24
22
00
ENDCHAR
STARTCHAR e
ENCODING 14
SWIDTH 480 0
DWIDTH 8 0
BBX 8 16 0 -2
BITMAP
00
70
88
80
70
08
88
70
00
1c
22
22
22
22
1c
00
ENDCHAR
STARTCHAR f
ENCODING 15
SWIDTH 480 0
DWIDTH 8 0
BBX 8 16 0 -2
BITMAP
00
70
88
80
70
08
88
70
00
1c
08
08
08
08
1c
00
ENDCHAR
STARTCHAR 10
ENCODING 16
SWIDTH 480 0
DWIDTH 8 0
BBX 8 16 0 -2
BITMAP
00
f0
88
88
88
88
f0
00
3e
20
20
3c
20
20
3e
00
ENDCHAR
STARTCHAR 11
ENCODING 17
SWIDTH 480 0
DWIDTH 8 0
BBX 8 16 0 -2
BITMAP
00
f0
88
88
88
88
f0
00
08
18
08
08
08
08
1c
00
ENDCHAR
STARTCHAR 12
ENCODING 18
SWIDTH 480 0
DWIDTH 8 0
BBX 8 16 0 -2
BITMAP
00
f0
88
88
88
88
f0
00
1c
22
02
0c
10
20
3e
00
ENDCHAR
STARTCHAR 13
ENCODING 19
SWIDTH 480 0
DWIDTH 8 0
BBX 8 16 0 -2
BITMAP
00
f0
88
88
88
88
f0
00
1c
22
02
0c
02
22
1c
00
ENDCHAR
STARTCHAR 14
ENCODING 20
SWIDTH 480 0
DWIDTH 8 0
BBX 8 16 0 -2
BITMAP
00
f0
88
88
88
88
f0
00
04
0c
14
24
3e
04
04
00
ENDCHAR
STARTCHAR 15
ENCODING 21
SWIDTH 480 0
DWIDTH 8 0
BBX 8 16 0 -2
BITMAP
00
88
88
c8
a8
98
88
88
22
24
28
30
28
24
22
00
ENDCHAR
STARTCHAR 16
ENCODING 22
SWIDTH 480 0
DWIDTH 8 0
BBX 8 16 0 -2
BITMAP
00
70
88
80
70
08
88
70
22
22
32
2a
26
22
22
00
ENDCHAR
STARTCHAR 17
ENCODING 23
SWIDTH 480 0
DWIDTH 8 0
BBX 8 16 0 -2
BITMAP
00
f8
80
80
f0
80
80
f8
3c
22
22
3c
22
22
3c
00
ENDCHAR
STARTCHAR 18
ENCODING 24
SWIDTH 480 0
DWIDTH 8 0
BBX 8 16 0 -2
BITMAP
00
70
88
80
80
88
70
00
22
22
32
2a
26
22
22
00
ENDCHAR
STARTCHAR 19
ENCODING 25
SWIDTH 480 0
DWIDTH 8 0
BBX 8 16 0 -2
BITMAP
00
f8
80
80
f0
80
80
f8
00
22
36
2a
22
22
22
00
ENDCHAR
STARTCHAR 1a
ENCODING 26
SWIDTH 480 0
DWIDTH 8 0
BBX 8 16 0 -2
BITMAP
00
70
88
80
70
08
88
70
3c
22
22
3c
22
22
3c
00
ENDCHAR
STARTCHAR 1b
ENCODING 27
SWIDTH 480 0
DWIDTH 8 0
BBX 8 16 0 -2
BITMAP
00
f8
80
80
f0
80
80
f8
00
1c
22
20
20
22
1c
00
ENDCHAR
STARTCHAR 1c
ENCODING 28
SWIDTH 480 0
DWIDTH 8 0
BBX 8 16 0 -2
BITMAP
00
00
00
00
08
08
04
fe
04
08
08
00
00
00
00
00
ENDCHAR
STARTCHAR 1d
ENCODING 29
SWIDTH 480 0
DWIDTH 8 0
BBX 8 16 0 -2
BITMAP
00
00
00
00
20
20
40
fe
40
20
20
00
00
00
00
00
ENDCHAR
STARTCHAR 1e
ENCODING 30
SWIDTH 480 0
DWIDTH 8 0
BBX 8 16 0 -2
BITMAP
00
00
10
10
38
38
54
54
10
10
10
10
10
10
00
00
ENDCHAR
STARTCHAR 1f
ENCODING 31
SWIDTH 480 0
DWIDTH 8 0
BBX 8 16 0 -2
BITMAP
00
00
10
10
10
10
10
10
54
54
38
38
10
10
00
00
ENDCHAR
STARTCHAR 20
ENCODING 32
SWIDTH 480 0
DWIDTH 8 0
BBX 8 16 0 -2
BITMAP
00
00
00
00
00
00
00
00
00
00
00
00
00
00
00
00
ENDCHAR
STARTCHAR 21
ENCODING 33
SWIDTH 480 0
DWIDTH 8 0
BBX 8 16 0 -2
BITMAP
00
00
10
10
10
10
10
10
10
10
00
00
10
10
00
00
ENDCHAR
STARTCHAR 22
ENCODING 34
SWIDTH 480 0
DWIDTH 8 0
BBX 8 16 0 -2
BITMAP
00
00
6c
24
24
48
00
00
00
00
00
00
00
00
00
00
ENDCHAR
STARTCHAR 23
ENCODING 35
SWIDTH 480 0
DWIDTH 8 0
BBX 8 16 0 -2
BITMAP
00
00
44
44
44
fe
44
44
44
44
fe
44
44
44
00
00
ENDCHAR
STARTCHAR 24
ENCODING 36
SWIDTH 480 0
DWIDTH 8 0
BBX 8 16 0 -2
BITMAP
00
00
10
10
7c
92
90
7c
12
12
92
7c
10
10
00
00
ENDCHAR
STARTCHAR 25
ENCODING 37
SWIDTH 480 0
DWIDTH 8 0
BBX 8 16 0 -2
BITMAP
00
00
00
60
90
92
64
08
10
20
4c
92
12
0c
00
00
ENDCHAR
STARTCHAR 26
ENCODING 38
SWIDTH 480 0
DWIDTH 8 0
BBX 8 16 0 -2
BITMAP
00
00
00
70
88
88
88
50
20
50
8a
84
8c
72
00
00
ENDCHAR
STARTCHAR 27
ENCODING 39
SWIDTH 480 0
DWIDTH 8 0
BBX 8 16 0 -2
BITMAP
00
00
30
10
10
20
00
00
00
00
00
00
00
00
00
00
ENDCHAR
STARTCHAR 28
ENCODING 40
SWIDTH 480 0
DWIDTH 8 0
BBX 8 16 0 -2
BITMAP
00
04
08
10
10
20
20
20
20
20
20
10
10
08
04
00
ENDCHAR
STARTCHAR 29
ENCODING 41
SWIDTH 480 0
DWIDTH 8 0
BBX 8 16 0 -2
BITMAP
00
20
10
08
08
04
04
04
04
04
04
08
08
10
20
00
ENDCHAR
STARTCHAR 2a
ENCODING 42
SWIDTH 480 0
DWIDTH 8 0
BBX 8 16 0 -2
BITMAP
00
00
00
00
10
54
38
10
38
54
10
00
00
00
00
00
ENDCHAR
STARTCHAR 2b
ENCODING 43
SWIDTH 480 0
DWIDTH 8 0
BBX 8 16 0 -2
BITMAP
00
00
00
00
10
10
10
fe
10
10
10
00
00
00
00
00
ENDCHAR
STARTCHAR 2c
ENCODING 44
SWIDTH 480 0
DWIDTH 8 0
BBX 8 16 0 -2
BITMAP
00
00
00
00
00
00
00
00
00
00
00
00
30
10
10
20
ENDCHAR
STARTCHAR 2d
ENCODING 45
SWIDTH 480 0
DWIDTH 8 0
BBX 8 16 0 -2
BITMAP
00
00
00
00
00
00
00
fe
00
00
00
00
00
00
00
00
ENDCHAR
STARTCHAR 2e
ENCODING 46
SWIDTH 480 0
DWIDTH 8 0
BBX 8 16 0 -2
BITMAP
00
00
00
00
00
00
00
00
00
00
00
00
30
30
00
00
ENDCHAR
STARTCHAR 2f
ENCODING 47
SWIDTH 480 0
DWIDTH 8 0
BBX 8 16 0 -2
BITMAP
00
00
02
02
04
04
08
08
10
10
20
20
40
40
00
00
ENDCHAR
STARTCHAR 30
ENCODING 48
SWIDTH 480 0
DWIDTH 8 0
BBX 8 16 0 -2
BITMAP
00
00
3c
42
46
46
4a
4a
52
52
62
62
42
3c
00
00
ENDCHAR
STARTCHAR 31
ENCODING 49
SWIDTH 480 0
DWIDTH 8 0
BBX 8 16 0 -2
BITMAP
00
00
08
18
28
08
08
08
08
08
08
08
08
3e
00
00
ENDCHAR
STARTCHAR 32
ENCODING 50
SWIDTH 480 0
DWIDTH 8 0
BBX 8 16 0 -2
BITMAP
00
00
38
44
82
82
02
04
08
10
20
40
80
fe
00
00
ENDCHAR
STARTCHAR 33
ENCODING 51
SWIDTH 480 0
DWIDTH 8 0
BBX 8 16 0 -2
BITMAP
00
00
7c
08
10
20
78
04
02
02
02
82
44
38
00
00
ENDCHAR
STARTCHAR 34
ENCODING 52
SWIDTH 480 0
DWIDTH 8 0
BBX 8 16 0 -2
BITMAP
00
00
08
18
18
28
28
48
48
88
fe
08
08
08
00
00
ENDCHAR
STARTCHAR 35
ENCODING 53
SWIDTH 480 0
DWIDTH 8 0
BBX 8 16 0 -2
BITMAP
00
00
7e
40
40
40
78
44
02
02
02
82
44
38
00
00
ENDCHAR
STARTCHAR 36
ENCODING 54
SWIDTH 480 0
DWIDTH 8 0
BBX 8 16 0 -2
BITMAP
00
00
38
44
82
80
b8
c4
82
82
82
82
44
38
00
00
ENDCHAR
STARTCHAR 37
ENCODING 55
SWIDTH 480 0
DWIDTH 8 0
BBX 8 16 0 -2
BITMAP
00
00
fe
82
82
02
04
08
08
10
10
10
10
10
00
00
ENDCHAR
STARTCHAR 38
ENCODING 56
SWIDTH 480 0
DWIDTH 8 0
BBX 8 16 0 -2
BITMAP
00
00
38
44
82
82
44
38
44
82
82
82
44
38
00
00
ENDCHAR
STARTCHAR 39
ENCODING 57
SWIDTH 480 0
DWIDTH 8 0
BBX 8 16 0 -2
BITMAP
00
00
38
44
82
82
82
46
3a
02
02
82
44
38
00
00
ENDCHAR
STARTCHAR 3a
ENCODING 58
SWIDTH 480 0
DWIDTH 8 0
BBX 8 16 0 -2
BITMAP
00
00
00
00
18
18
00
00
00
00
18
18
00
00
00
00
ENDCHAR
STARTCHAR 3b
ENCODING 59
SWIDTH 480 0
DWIDTH 8 0
BBX 8 16 0 -2
BITMAP
00
00
00
00
18
18
00
00
00
00
18
08
08
10
00
00
ENDCHAR
STARTCHAR 3c
ENCODING 60
SWIDTH 480 0
DWIDTH 8 0
BBX 8 16 0 -2
BITMAP
00
00
00
02
04
08
10
20
40
20
10
08
04
02
00
00
ENDCHAR
STARTCHAR 3d
ENCODING 61
SWIDTH 480 0
DWIDTH 8 0
BBX 8 16 0 -2
BITMAP
00
00
00
00
00
00
fe
00
00
fe
00
00
00
00
00
00
ENDCHAR
STARTCHAR 3e
ENCODING 62
SWIDTH 480 0
DWIDTH 8 0
BBX 8 16 0 -2
BITMAP
00
00
00
40
20
10
08
04
02
04
08
10
20
40
00
00
ENDCHAR
STARTCHAR 3f
ENCODING 63
SWIDTH 480 0
DWIDTH 8 0
BBX 8 16 0 -2
BITMAP
00
00
38
44
82
02
04
08
10
10
00
00
10
10
00
00
ENDCHAR
STARTCHAR 40
ENCODING 64
SWIDTH 480 0
DWIDTH 8 0
BBX 8 16 0 -2
BITMAP
00
00
38
44
92
aa
aa
aa
aa
aa
ac
90
40
3c
00
00
ENDCHAR
STARTCHAR 41
ENCODING 65
SWIDTH 480 0
DWIDTH 8 0
BBX 8 16 0 -2
BITMAP
00
00
10
10
28
28
28
44
44
44
fe
82
82
82
00
00
ENDCHAR
STARTCHAR 42
ENCODING 66
SWIDTH 480 0
DWIDTH 8 0
BBX 8 16 0 -2
BITMAP
00
00
f8
44
42
42
44
78
44
42
42
42
44
f8
00
00
ENDCHAR
STARTCHAR 43
ENCODING 67
SWIDTH 480 0
DWIDTH 8 0
BBX 8 16 0 -2
BITMAP
00
00
38
44
82
80
80
80
80
80
80
82
44
38
00
00
ENDCHAR
STARTCHAR 44
ENCODING 68
SWIDTH 480 0
DWIDTH 8 0
BBX 8 16 0 -2
BITMAP
00
00
f8
44
42
42
42
42
42
42
42
42
44
f8
00
00
ENDCHAR
STARTCHAR 45
ENCODING 69
SWIDTH 480 0
DWIDTH 8 0
BBX 8 16 0 -2
BITMAP
00
00
7e
40
40
40
40
7c
40
40
40
40
40
7e
00
00
ENDCHAR
STARTCHAR 46
ENCODING 70
SWIDTH 480 0
DWIDTH 8 0
BBX 8 16 0 -2
BITMAP
00
00
7e
40
40
40
40
7c
40
40
40
40
40
40
00
00
ENDCHAR
STARTCHAR 47
ENCODING 71
SWIDTH 480 0
DWIDTH 8 0
BBX 8 16 0 -2
BITMAP
00
00
38
44
82
80
80
80
8e
82
82
82
46
38
00
00
ENDCHAR
STARTCHAR 48
ENCODING 72
SWIDTH 480 0
DWIDTH 8 0
BBX 8 16 0 -2
BITMAP
00
00
42
42
42
42
42
7e
42
42
42
42
42
42
00
00
ENDCHAR
STARTCHAR 49
ENCODING 73
SWIDTH 480 0
DWIDTH 8 0
BBX 8 16 0 -2
BITMAP
00
00
38
10
10
10
10
10
10
10
10
10
10
38
00
00
ENDCHAR
STARTCHAR 4a
ENCODING 74
SWIDTH 480 0
DWIDTH 8 0
BBX 8 16 0 -2
BITMAP
00
00
0e
04
04
04
04
04
04
04
04
44
44
38
00
00
ENDCHAR
STARTCHAR 4b
ENCODING 75
SWIDTH 480 0
DWIDTH 8 0
BBX 8 16 0 -2
BITMAP
00
00
42
42
44
44
48
70
48
48
44
44
42
42
00
00
ENDCHAR
STARTCHAR 4c
ENCODING 76
SWIDTH 480 0
DWIDTH 8 0
BBX 8 16 0 -2
BITMAP
00
00
40
40
40
40
40
40
40
40
40
40
40
7e
00
00
ENDCHAR
STARTCHAR 4d
ENCODING 77
SWIDTH 480 0
DWIDTH 8 0
BBX 8 16 0 -2
BITMAP
00
00
82
82
c6
c6
aa
aa
92
92
82
82
82
82
00
00
ENDCHAR
STARTCHAR 4e
ENCODING 78
SWIDTH 480 0
DWIDTH 8 0
BBX 8 16 0 -2
BITMAP
00
00
82
c2
c2
a2
a2
92
92
8a
8a
86
86
82
00
00
ENDCHAR
STARTCHAR 4f
ENCODING 79
SWIDTH 480 0
DWIDTH 8 0
BBX 8 16 0 -2
BITMAP
00
00
38
44
82
82
82
82
82
82
82
82
44
38
00
00
ENDCHAR
STARTCHAR 50
ENCODING 80
SWIDTH 480 0
DWIDTH 8 0
BBX 8 16 0 -2
BITMAP
00
00
78
44
42
42
44
78
40
40
40
40
40
40
00
00
ENDCHAR
STARTCHAR 51
ENCODING 81
SWIDTH 480 0
DWIDTH 8 0
BBX 8 16 0 -2
BITMAP
00
00
38
44
82
82
82
82
82
82
9a
a6
64
3a
00
00
ENDCHAR
STARTCHAR 52
ENCODING 82
SWIDTH 480 0
DWIDTH 8 0
BBX 8 16 0 -2
BITMAP
00
00
78
44
42
42
44
78
44
44
42
42
42
42
00
00
ENDCHAR
STARTCHAR 53
ENCODING 83
SWIDTH 480 0
DWIDTH 8 0
BBX 8 16 0 -2
BITMAP
00
00
38
44
82
80
40
38
04
02
02
82
44
38
00
00
ENDCHAR
STARTCHAR 54
ENCODING 84
SWIDTH 480 0
DWIDTH 8 0
BBX 8 16 0 -2
BITMAP
00
00
fe
10
10
10
10
10
10
10
10
10
10
10
00
00
ENDCHAR
STARTCHAR 55
ENCODING 85
SWIDTH 480 0
DWIDTH 8 0
BBX 8 16 0 -2
BITMAP
00
00
42
42
42
42
42
42
42
42
42
42
42
3c
00
00
ENDCHAR
STARTCHAR 56
ENCODING 86
SWIDTH 480 0
DWIDTH 8 0
BBX 8 16 0 -2
BITMAP
00
00
82
82
82
44
44
44
28
28
28
10
10
10
00
00
ENDCHAR
STARTCHAR 57
ENCODING 87
SWIDTH 480 0
DWIDTH 8 0
BBX 8 16 0 -2
BITMAP
00
00
82
82
82
92
92
92
aa
aa
aa
44
44
44
00
00
ENDCHAR
STARTCHAR 58
ENCODING 88
SWIDTH 480 0
DWIDTH 8 0
BBX 8 16 0 -2
BITMAP
00
00
82
82
44
44
28
10
10
28
44
44
82
82
00
00
ENDCHAR
STARTCHAR 59
ENCODING 89
SWIDTH 480 0
DWIDTH 8 0
BBX 8 16 0 -2
BITMAP
00
00
82
82
44
44
28
10
10
10
10
10
10
10
00
00
ENDCHAR
STARTCHAR 5a
ENCODING 90
SWIDTH 480 0
DWIDTH 8 0
BBX 8 16 0 -2
BITMAP
00
00
fe
02
04
04
08
10
10
20
40
40
80
fe
00
00
ENDCHAR
STARTCHAR 5b
ENCODING 91
SWIDTH 480 0
DWIDTH 8 0
BBX 8 16 0 -2
BITMAP
00
3c
20
20
20
20
20
20
20
20
20
20
20
20
3c
00
ENDCHAR
STARTCHAR 5c
ENCODING 92
SWIDTH 480 0
DWIDTH 8 0
BBX 8 16 0 -2
BITMAP
00
00
82
44
28
10
fe
10
10
fe
10
10
10
10
00
00
ENDCHAR
STARTCHAR 5d
ENCODING 93
SWIDTH 480 0
DWIDTH 8 0
BBX 8 16 0 -2
BITMAP
00
78
08
08
08
08
08
08
08
08
08
08
08
08
78
00
ENDCHAR
STARTCHAR 5e
ENCODING 94
SWIDTH 480 0
DWIDTH 8 0
BBX 8 16 0 -2
BITMAP
00
00
10
28
44
82
00
00
00
00
00
00
00
00
00
00
ENDCHAR
STARTCHAR 5f
ENCODING 95
SWIDTH 480 0
DWIDTH 8 0
BBX 8 16 0 -2
BITMAP
00
00
00
00
00
00
00
00
00
00
00
00
00
fe
00
00
ENDCHAR
STARTCHAR 60
ENCODING 96
SWIDTH 480 0
DWIDTH 8 0
BBX 8 16 0 -2
BITMAP
00
00
40
20
10
00
00
00
00
00
00
00
00
00
00
00
ENDCHAR
STARTCHAR 61
ENCODING 97
SWIDTH 480 0
DWIDTH 8 0
BBX 8 16 0 -2
BITMAP
00
00
00
00
00
00
3c
42
06
3a
42
42
46
3a
00
00
ENDCHAR
STARTCHAR 62
ENCODING 98
SWIDTH 480 0
DWIDTH 8 0
BBX 8 16 0 -2
BITMAP
00
00
40
40
40
40
58
64
42
42
42
42
64
58
00
00
ENDCHAR
STARTCHAR 63
ENCODING 99
SWIDTH 480 0
DWIDTH 8 0
BBX 8 16 0 -2
BITMAP
00
00
00
00
00
00
1c
22
40
40
40
40
22
1c
00
00
ENDCHAR
STARTCHAR 64
ENCODING 100
SWIDTH 480 0
DWIDTH 8 0
BBX 8 16 0 -2
BITMAP
00
00
02
02
02
02
1a
26
42
42
42
42
26
1a
00
00
ENDCHAR
STARTCHAR 65
ENCODING 101
SWIDTH 480 0
DWIDTH 8 0
BBX 8 16 0 -2
BITMAP
00
00
00
00
00
00
38
44
82
fe
80
80
46
3c
00
00
ENDCHAR
STARTCHAR 66
ENCODING 102
SWIDTH 480 0
DWIDTH 8 0
BBX 8 16 0 -2
BITMAP
00
00
0c
12
10
10
7c
10
10
10
10
10
10
10
00
00
ENDCHAR
STARTCHAR 67
ENCODING 103
SWIDTH 480 0
DWIDTH 8 0
BBX 8 16 0 -2
BITMAP
00
00
00
00
00
00
3a
46
82
82
82
46
3a
02
c4
78
ENDCHAR
STARTCHAR 68
ENCODING 104
SWIDTH 480 0
DWIDTH 8 0
BBX 8 16 0 -2
BITMAP
00
00
40
40
40
40
58
64
42
42
42
42
42
42
00
00
ENDCHAR
STARTCHAR 69
ENCODING 105
SWIDTH 480 0
DWIDTH 8 0
BBX 8 16 0 -2
BITMAP
00
00
10
10
00
00
30
10
10
10
10
10
10
38
00
00
ENDCHAR
STARTCHAR 6a
ENCODING 106
SWIDTH 480 0
DWIDTH 8 0
BBX 8 16 0 -2
BITMAP
00
00
04
04
00
00
0c
04
04
04
04
04
04
44
44
38
ENDCHAR
STARTCHAR 6b
ENCODING 107
SWIDTH 480 0
DWIDTH 8 0
BBX 8 16 0 -2
BITMAP
00
00
40
40
40
40
42
44
48
50
70
48
44
42
00
00
ENDCHAR
STARTCHAR 6c
ENCODING 108
SWIDTH 480 0
DWIDTH 8 0
BBX 8 16 0 -2
BITMAP
00
00
30
10
10
10
10
10
10
10
10
10
10
10
00
00
ENDCHAR
STARTCHAR 6d
ENCODING 109
SWIDTH 480 0
DWIDTH 8 0
BBX 8 16 0 -2
BITMAP
00
00
00
00
00
00
ec
92
92
92
92
92
92
92
00
00
ENDCHAR
STARTCHAR 6e
ENCODING 110
SWIDTH 480 0
DWIDTH 8 0
BBX 8 16 0 -2
BITMAP
00
00
00
00
00
00
5c
62
42
42
42
42
42
42
00
00
ENDCHAR
STARTCHAR 6f
ENCODING 111
SWIDTH 480 0
DWIDTH 8 0
BBX 8 16 0 -2
BITMAP
00
00
00
00
00
00
38
44
82
82
82
82
44
38
00
00
ENDCHAR
STARTCHAR 70
ENCODING 112
SWIDTH 480 0
DWIDTH 8 0
BBX 8 16 0 -2
BITMAP
00
00
00
00
00
00
58
64
42
42
42
64
58
40
40
40
ENDCHAR
STARTCHAR 71
ENCODING 113
SWIDTH 480 0
DWIDTH 8 0
BBX 8 16 0 -2
BITMAP
00
00
00
00
00
00
34
4c
84
84
84
4c
34
04
04
04
ENDCHAR
STARTCHAR 72
ENCODING 114
SWIDTH 480 0
DWIDTH 8 0
BBX 8 16 0 -2
BITMAP
00
00
00
00
00
00
2c
32
20
20
20
20
20
20
00
00
ENDCHAR
STARTCHAR 73
ENCODING 115
SWIDTH 480 0
DWIDTH 8 0
BBX 8 16 0 -2
BITMAP
00
00
00
00
00
00
3c
46
40
30
0c
02
62
3c
00
00
ENDCHAR
STARTCHAR 74
ENCODING 116
SWIDTH 480 0
DWIDTH 8 0
BBX 8 16 0 -2
BITMAP
00
00
10
10
10
10
7c
10
10
10
10
10
10
0c
00
00
ENDCHAR
STARTCHAR 75
ENCODING 117
SWIDTH 480 0
DWIDTH 8 0
BBX 8 16 0 -2
BITMAP
00
00
00
00
00
00
42
42
42
42
42
42
46
3a
00
00
ENDCHAR
STARTCHAR 76
ENCODING 118
SWIDTH 480 0
DWIDTH 8 0
BBX 8 16 0 -2
BITMAP
00
00
00
00
00
00
82
82
44
44
28
28
10
10
00
00
ENDCHAR
STARTCHAR 77
ENCODING 119
SWIDTH 480 0
DWIDTH 8 0
BBX 8 16 0 -2
BITMAP
00
00
00
00
00
00
82
82
92
92
aa
aa
44
44
00
00
ENDCHAR
STARTCHAR 78
ENCODING 120
SWIDTH 480 0
DWIDTH 8 0
BBX 8 16 0 -2
BITMAP
00
00
00
00
00
00
82
44
28
10
10
28
44
82
00
00
ENDCHAR
STARTCHAR 79
ENCODING 121
SWIDTH 480 0
DWIDTH 8 0
BBX 8 16 0 -2
BITMAP
00
00
00
00
00
00
82
82
44
44
28
28
10
10
20
c0
ENDCHAR
STARTCHAR 7a
ENCODING 122
SWIDTH 480 0
DWIDTH 8 0
BBX 8 16 0 -2
BITMAP
00
00
00
00
00
00
7e
02
04
08
10
20
40
7e
00
00
ENDCHAR
STARTCHAR 7b
ENCODING 123
SWIDTH 480 0
DWIDTH 8 0
BBX 8 16 0 -2
BITMAP
00
00
0c
10
10
10
10
60
10
10
10
10
10
0c
00
00
ENDCHAR
STARTCHAR 7c
ENCODING 124
SWIDTH 480 0
DWIDTH 8 0
BBX 8 16 0 -2
BITMAP
00
00
18
18
18
18
18
18
18
18
18
18
18
18
00
00
ENDCHAR
STARTCHAR 7d
ENCODING 125
SWIDTH 480 0
DWIDTH 8 0
BBX 8 16 0 -2
BITMAP
00
00
30
08
08
08
08
06
08
08
08
08
08
30
00
00
ENDCHAR
STARTCHAR 7e
ENCODING 126
SWIDTH 480 0
DWIDTH 8 0
BBX 8 16 0 -2
BITMAP
00
60
92
0c
00
00
00
00
00
00
00
00
00
00
00
00
ENDCHAR
STARTCHAR 7f
ENCODING 127
SWIDTH 480 0
DWIDTH 8 0
BBX 8 16 0 -2
BITMAP
00
00
82
44
28
10
fe
10
10
fe
10
10
10
10
00
00
ENDCHAR
STARTCHAR 80
ENCODING 128
SWIDTH 480 0
DWIDTH 8 0
BBX 8 16 0 -2
BITMAP
00
80
80
40
40
20
20
10
10
08
08
04
04
02
02
00
ENDCHAR
STARTCHAR 81
ENCODING 129
SWIDTH 480 0
DWIDTH 8 0
BBX 8 16 0 -2
BITMAP
00
60
92
0c
00
00
00
00
00
00
00
00
00
00
00
00
ENDCHAR
STARTCHAR 82
ENCODING 130
SWIDTH 480 0
DWIDTH 8 0
BBX 8 16 0 -2
BITMAP
00
10
10
10
10
10
10
00
00
10
10
10
10
10
10
00
ENDCHAR
STARTCHAR 83
ENCODING 131
SWIDTH 480 0
DWIDTH 8 0
BBX 8 16 0 -2
BITMAP
00
00
00
00
00
00
00
00
00
00
00
00
00
00
00
00
ENDCHAR
STARTCHAR 84
ENCODING 132
SWIDTH 480 0
DWIDTH 8 0
BBX 8 16 0 -2
BITMAP
00
00
00
00
00
00
00
00
00
00
00
00
00
00
00
00
ENDCHAR
STARTCHAR 85
ENCODING 133
SWIDTH 480 0
DWIDTH 8 0
BBX 8 16 0 -2
BITMAP
00
00
00
00
00
00
00
00
00
00
00
00
00
00
00
00
ENDCHAR
STARTCHAR 86
ENCODING 134
SWIDTH 480 0
DWIDTH 8 0
BBX 8 16 0 -2
BITMAP
00
20
20
fc
20
20
70
4e
98
a8
28
40
40
3c
00
00
ENDCHAR
STARTCHAR 87
ENCODING 135
SWIDTH 480 0
DWIDTH 8 0
BBX 8 16 0 -2
BITMAP
00
00
00
00
20
20
fc
20
38
64
aa
aa
92
64
00
00
ENDCHAR
STARTCHAR 88
ENCODING 136
SWIDTH 480 0
DWIDTH 8 0
BBX 8 16 0 -2
BITMAP
00
00
00
00
00
80
84
84
82
82
82
a2
40
40
00
00
ENDCHAR
STARTCHAR 89
ENCODING 137
SWIDTH 480 0
DWIDTH 8 0
BBX 8 16 0 -2
BITMAP
00
00
00
00
60
18
00
3c
c2
02
02
02
0c
30
00
00
ENDCHAR
STARTCHAR 8a
ENCODING 138
SWIDTH 480 0
DWIDTH 8 0
BBX 8 16 0 -2
BITMAP
00
00
00
00
60
18
00
fc
08
10
10
28
48
86
00
00
ENDCHAR
STARTCHAR 8b
ENCODING 139
SWIDTH 480 0
DWIDTH 8 0
BBX 8 16 0 -2
BITMAP
00
00
00
00
20
20
fc
24
22
3c
62
a2
a2
4c
00
00
ENDCHAR
STARTCHAR 8c
ENCODING 140
SWIDTH 480 0
DWIDTH 8 0
BBX 8 16 0 -2
BITMAP
00
00
00
00
50
48
3c
ea
22
24
20
10
10
10
00
00
ENDCHAR
STARTCHAR 8d
ENCODING 141
SWIDTH 480 0
DWIDTH 8 0
BBX 8 16 0 -2
BITMAP
00
00
00
00
10
28
bc
aa
ea
aa
aa
9c
08
10
00
00
ENDCHAR
STARTCHAR 8e
ENCODING 142
SWIDTH 480 0
DWIDTH 8 0
BBX 8 16 0 -2
BITMAP
00
00
00
00
10
10
1e
10
10
10
70
9c
92
60
00
00
ENDCHAR
STARTCHAR 8f
ENCODING 143
SWIDTH 480 0
DWIDTH 8 0
BBX 8 16 0 -2
BITMAP
00
00
00
00
00
38
c4
02
02
02
02
02
0c
30
00
00
ENDCHAR
STARTCHAR 90
ENCODING 144
SWIDTH 480 0
DWIDTH 8 0
BBX 8 16 0 -2
BITMAP
00
00
00
00
00
00
00
00
00
00
00
00
00
00
00
00
ENDCHAR
STARTCHAR 91
ENCODING 145
SWIDTH 480 0
DWIDTH 8 0
BBX 8 16 0 -2
BITMAP
00
20
20
fc
20
20
38
6c
6a
aa
aa
b2
a4
48
00
00
ENDCHAR
STARTCHAR 92
ENCODING 146
SWIDTH 480 0
DWIDTH 8 0
BBX 8 16 0 -2
BITMAP
00
00
00
80
84
84
82
82
82
82
82
52
60
20
00
00
ENDCHAR
STARTCHAR 93
ENCODING 147
SWIDTH 480 0
DWIDTH 8 0
BBX 8 16 0 -2
BITMAP
00
60
18
00
00
38
c4
02
02
02
02
04
04
18
60
00
ENDCHAR
STARTCHAR 94
ENCODING 148
SWIDTH 480 0
DWIDTH 8 0
BBX 8 16 0 -2
BITMAP
00
60
18
00
fc
08
08
10
10
28
48
48
88
86
00
00
ENDCHAR
STARTCHAR 95
ENCODING 149
SWIDTH 480 0
DWIDTH 8 0
BBX 8 16 0 -2
BITMAP
00
20
20
fc
20
24
22
20
3c
62
a2
a2
a2
4c
00
00
ENDCHAR
STARTCHAR 96
ENCODING 150
SWIDTH 480 0
DWIDTH 8 0
BBX 8 16 0 -2
BITMAP
00
20
24
24
fa
26
25
45
44
44
44
88
a8
98
00
00
ENDCHAR
STARTCHAR 97
ENCODING 151
SWIDTH 480 0
DWIDTH 8 0
BBX 8 16 0 -2
BITMAP
00
10
16
78
08
0f
f8
04
04
3e
42
40
40
3e
00
00
ENDCHAR
STARTCHAR 98
ENCODING 152
SWIDTH 480 0
DWIDTH 8 0
BBX 8 16 0 -2
BITMAP
00
02
04
08
10
20
40
40
40
20
10
08
04
02
00
00
ENDCHAR
STARTCHAR 99
ENCODING 153
SWIDTH 480 0
DWIDTH 8 0
BBX 8 16 0 -2
BITMAP
00
04
84
84
9f
82
82
82
82
82
82
42
44
08
00
00
ENDCHAR
STARTCHAR 9a
ENCODING 154
SWIDTH 480 0
DWIDTH 8 0
BBX 8 16 0 -2
BITMAP
00
00
78
0c
10
00
00
00
00
40
80
80
60
1e
00
00
ENDCHAR
STARTCHAR 9b
ENCODING 155
SWIDTH 480 0
DWIDTH 8 0
BBX 8 16 0 -2
BITMAP
00
10
10
16
f8
08
08
04
3c
42
40
40
20
1e
00
00
ENDCHAR
STARTCHAR 9c
ENCODING 156
SWIDTH 480 0
DWIDTH 8 0
BBX 8 16 0 -2
BITMAP
00
80
80
80
80
80
80
80
80
80
81
82
4c
30
00
00
ENDCHAR
STARTCHAR 9d
ENCODING 157
SWIDTH 480 0
DWIDTH 8 0
BBX 8 16 0 -2
BITMAP
00
04
04
ff
04
3c
44
44
44
44
3c
04
08
30
00
00
ENDCHAR
STARTCHAR 9e
ENCODING 158
SWIDTH 480 0
DWIDTH 8 0
BBX 8 16 0 -2
BITMAP
00
00
42
42
ff
42
42
42
42
4c
40
40
40
3e
00
00
ENDCHAR
STARTCHAR 9f
ENCODING 159
SWIDTH 480 0
DWIDTH 8 0
BBX 8 16 0 -2
BITMAP
00
3c
04
08
10
20
ff
08
10
20
20
20
20
1c
00
00
ENDCHAR
STARTCHAR a0
ENCODING 160
SWIDTH 480 0
DWIDTH 8 0
BBX 8 16 0 -2
BITMAP
00
00
00
00
00
00
00
00
00
00
00
00
00
00
00
00
ENDCHAR
STARTCHAR a1
ENCODING 161
SWIDTH 480 0
DWIDTH 8 0
BBX 8 16 0 -2
BITMAP
00
00
00
00
00
00
00
00
00
00
00
00
30
48
48
30
ENDCHAR
STARTCHAR a2
ENCODING 162
SWIDTH 480 0
DWIDTH 8 0
BBX 8 16 0 -2
BITMAP
3e
20
20
20
20
20
20
20
20
20
00
00
00
00
00
00
ENDCHAR
STARTCHAR a3
ENCODING 163
SWIDTH 480 0
DWIDTH 8 0
BBX 8 16 0 -2
BITMAP
00
00
00
00
00
00
04
04
04
04
04
04
04
04
04
7c
ENDCHAR
STARTCHAR a4
ENCODING 164
SWIDTH 480 0
DWIDTH 8 0
BBX 8 16 0 -2
BITMAP
00
00
00
00
00
00
00
00
00
00
00
00
00
40
20
10
ENDCHAR
STARTCHAR a5
ENCODING 165
SWIDTH 480 0
DWIDTH 8 0
BBX 8 16 0 -2
BITMAP
00
00
00
00
00
00
00
10
18
00
00
00
00
00
00
00
ENDCHAR
STARTCHAR a6
ENCODING 166
SWIDTH 480 0
DWIDTH 8 0
BBX 8 16 0 -2
BITMAP
00
00
00
7e
02
02
7e
02
02
02
04
04
18
60
00
00
ENDCHAR
STARTCHAR a7
ENCODING 167
SWIDTH 480 0
DWIDTH 8 0
BBX 8 16 0 -2
BITMAP
00
00
00
00
00
00
fe
02
12
14
18
20
20
c0
00
00
ENDCHAR
STARTCHAR a8
ENCODING 168
SWIDTH 480 0
DWIDTH 8 0
BBX 8 16 0 -2
BITMAP
00
00
00
00
00
02
02
04
08
38
c8
08
08
08
00
00
ENDCHAR
STARTCHAR a9
ENCODING 169
SWIDTH 480 0
DWIDTH 8 0
BBX 8 16 0 -2
BITMAP
00
00
00
00
00
10
10
fe
82
82
02
04
08
70
00
00
ENDCHAR
STARTCHAR aa
ENCODING 170
SWIDTH 480 0
DWIDTH 8 0
BBX 8 16 0 -2
BITMAP
00
00
00
00
00
00
7c
10
10
10
10
10
10
fe
00
00
ENDCHAR
STARTCHAR ab
ENCODING 171
SWIDTH 480 0
DWIDTH 8 0
BBX 8 16 0 -2
BITMAP
00
00
00
00
00
08
08
fe
08
18
28
48
88
08
00
00
ENDCHAR
STARTCHAR ac
ENCODING 172
SWIDTH 480 0
DWIDTH 8 0
BBX 8 16 0 -2
BITMAP
00
00
00
00
00
40
40
fe
22
24
28
10
10
10
00
00
ENDCHAR
STARTCHAR ad
ENCODING 173
SWIDTH 480 0
DWIDTH 8 0
BBX 8 16 0 -2
BITMAP
00
00
00
00
00
00
78
08
08
08
08
08
08
fe
00
00
ENDCHAR
STARTCHAR ae
ENCODING 174
SWIDTH 480 0
DWIDTH 8 0
BBX 8 16 0 -2
BITMAP
00
00
00
00
00
00
7e
02
02
7e
02
02
02
7e
00
00
ENDCHAR
STARTCHAR af
ENCODING 175
SWIDTH 480 0
DWIDTH 8 0
BBX 8 16 0 -2
BITMAP
00
00
00
00
00
00
92
92
92
02
04
04
18
e0
00
00
ENDCHAR
STARTCHAR b0
ENCODING 176
SWIDTH 480 0
DWIDTH 8 0
BBX 8 16 0 -2
BITMAP
00
00
00
00
00
00
00
00
fe
00
00
00
00
00
00
00
ENDCHAR
STARTCHAR b1
ENCODING 177
SWIDTH 480 0
DWIDTH 8 0
BBX 8 16 0 -2
BITMAP
00
00
00
fe
02
12
12
14
18
10
20
20
40
80
00
00
ENDCHAR
STARTCHAR b2
ENCODING 178
SWIDTH 480 0
DWIDTH 8 0
BBX 8 16 0 -2
BITMAP
00
00
02
02
04
08
18
28
48
88
08
08
08
08
00
00
ENDCHAR
STARTCHAR b3
ENCODING 179
SWIDTH 480 0
DWIDTH 8 0
BBX 8 16 0 -2
BITMAP
00
00
10
10
fe
82
82
02
02
04
04
08
10
60
00
00
ENDCHAR
STARTCHAR b4
ENCODING 180
SWIDTH 480 0
DWIDTH 8 0
BBX 8 16 0 -2
BITMAP
00
00
00
7c
10
10
10
10
10
10
10
10
10
fe
00
00
ENDCHAR
STARTCHAR b5
ENCODING 181
SWIDTH 480 0
DWIDTH 8 0
BBX 8 16 0 -2
BITMAP
00
00
08
08
fe
08
18
18
28
28
48
48
88
08
00
00
ENDCHAR
STARTCHAR b6
ENCODING 182
SWIDTH 480 0
DWIDTH 8 0
BBX 8 16 0 -2
BITMAP
00
00
20
20
fe
22
22
22
42
42
42
42
82
8c
00
00
ENDCHAR
STARTCHAR b7
ENCODING 183
SWIDTH 480 0
DWIDTH 8 0
BBX 8 16 0 -2
BITMAP
00
00
20
20
1c
f0
10
10
1e
f0
08
08
08
08
00
00
ENDCHAR
STARTCHAR b8
ENCODING 184
SWIDTH 480 0
DWIDTH 8 0
BBX 8 16 0 -2
BITMAP
00
00
00
3e
22
42
82
02
04
04
08
08
10
60
00
00
ENDCHAR
STARTCHAR b9
ENCODING 185
SWIDTH 480 0
DWIDTH 8 0
BBX 8 16 0 -2
BITMAP
00
00
40
40
7e
48
48
88
08
08
08
10
10
60
00
00
ENDCHAR
STARTCHAR ba
ENCODING 186
SWIDTH 480 0
DWIDTH 8 0
BBX 8 16 0 -2
BITMAP
00
00
00
7e
02
02
02
02
02
02
02
02
02
7e
00
00
ENDCHAR
STARTCHAR bb
ENCODING 187
SWIDTH 480 0
DWIDTH 8 0
BBX 8 16 0 -2
BITMAP
00
00
44
44
44
fe
44
44
44
04
04
08
08
30
00
00
ENDCHAR
STARTCHAR bc
ENCODING 188
SWIDTH 480 0
DWIDTH 8 0
BBX 8 16 0 -2
BITMAP
00
00
00
e2
02
02
e2
02
04
04
08
08
10
60
00
00
ENDCHAR
STARTCHAR bd
ENCODING 189
SWIDTH 480 0
DWIDTH 8 0
BBX 8 16 0 -2
BITMAP
00
00
00
7c
04
04
04
08
08
14
14
22
42
82
00
00
ENDCHAR
STARTCHAR be
ENCODING 190
SWIDTH 480 0
DWIDTH 8 0
BBX 8 16 0 -2
BITMAP
00
00
40
40
40
fe
42
42
44
48
40
40
40
7e
00
00
ENDCHAR
STARTCHAR bf
ENCODING 191
SWIDTH 480 0
DWIDTH 8 0
BBX 8 16 0 -2
BITMAP
00
00
00
82
82
42
44
44
04
08
08
10
20
40
00
00
ENDCHAR
STARTCHAR c0
ENCODING 192
SWIDTH 480 0
DWIDTH 8 0
BBX 8 16 0 -2
BITMAP
00
00
00
3e
22
42
a2
12
0c
04
08
08
10
60
00
00
ENDCHAR
STARTCHAR c1
ENCODING 193
SWIDTH 480 0
DWIDTH 8 0
BBX 8 16 0 -2
BITMAP
00
00
0c
70
10
10
10
fe
10
10
10
20
20
40
00
00
ENDCHAR
STARTCHAR c2
ENCODING 194
SWIDTH 480 0
DWIDTH 8 0
BBX 8 16 0 -2
BITMAP
00
00
00
92
92
92
92
02
02
04
04
08
10
60
00
00
ENDCHAR
STARTCHAR c3
ENCODING 195
SWIDTH 480 0
DWIDTH 8 0
BBX 8 16 0 -2
BITMAP
00
00
7c
00
00
fe
10
10
10
10
10
20
20
40
00
00
ENDCHAR
STARTCHAR c4
ENCODING 196
SWIDTH 480 0
DWIDTH 8 0
BBX 8 16 0 -2
BITMAP
00
00
20
20
20
20
20
38
26
20
20
20
20
20
00
00
ENDCHAR
STARTCHAR c5
ENCODING 197
SWIDTH 480 0
DWIDTH 8 0
BBX 8 16 0 -2
BITMAP
00
00
10
10
10
fe
10
10
10
10
10
20
20
40
00
00
ENDCHAR
STARTCHAR c6
ENCODING 198
SWIDTH 480 0
DWIDTH 8 0
BBX 8 16 0 -2
BITMAP
00
00
00
00
7c
00
00
00
00
00
00
00
00
fe
00
00
ENDCHAR
STARTCHAR c7
ENCODING 199
SWIDTH 480 0
DWIDTH 8 0
BBX 8 16 0 -2
BITMAP
00
00
00
7c
04
04
04
64
18
08
14
12
20
c0
00
00
ENDCHAR
STARTCHAR c8
ENCODING 200
SWIDTH 480 0
DWIDTH 8 0
BBX 8 16 0 -2
BITMAP
00
00
10
10
fe
04
08
10
38
54
92
10
10
10
00
00
ENDCHAR
STARTCHAR c9
ENCODING 201
SWIDTH 480 0
DWIDTH 8 0
BBX 8 16 0 -2
BITMAP
00
00
00
02
02
02
02
04
04
08
08
10
20
40
00
00
ENDCHAR
STARTCHAR ca
ENCODING 202
SWIDTH 480 0
DWIDTH 8 0
BBX 8 16 0 -2
BITMAP
00
00
00
08
44
44
44
44
42
42
42
82
82
82
00
00
ENDCHAR
STARTCHAR cb
ENCODING 203
SWIDTH 480 0
DWIDTH 8 0
BBX 8 16 0 -2
BITMAP
00
00
00
40
40
40
46
78
40
40
40
40
40
3e
00
00
ENDCHAR
STARTCHAR cc
ENCODING 204
SWIDTH 480 0
DWIDTH 8 0
BBX 8 16 0 -2
BITMAP
00
00
00
fc
04
04
04
04
04
08
08
10
20
c0
00
00
ENDCHAR
STARTCHAR cd
ENCODING 205
SWIDTH 480 0
DWIDTH 8 0
BBX 8 16 0 -2
BITMAP
00
00
00
60
50
50
88
88
04
04
04
02
02
02
00
00
ENDCHAR
STARTCHAR ce
ENCODING 206
SWIDTH 480 0
DWIDTH 8 0
BBX 8 16 0 -2
BITMAP
00
00
10
10
fe
10
10
54
54
52
92
92
10
10
00
00
ENDCHAR
STARTCHAR cf
ENCODING 207
SWIDTH 480 0
DWIDTH 8 0
BBX 8 16 0 -2
BITMAP
00
00
00
fe
02
02
02
04
04
48
30
10
08
08
00
00
ENDCHAR
STARTCHAR d0
ENCODING 208
SWIDTH 480 0
DWIDTH 8 0
BBX 8 16 0 -2
BITMAP
00
00
00
60
18
04
00
60
18
04
00
e0
18
06
00
00
ENDCHAR
STARTCHAR d1
ENCODING 209
SWIDTH 480 0
DWIDTH 8 0
BBX 8 16 0 -2
BITMAP
00
00
10
10
10
20
20
20
44
44
44
82
82
fe
00
00
ENDCHAR
STARTCHAR d2
ENCODING 210
SWIDTH 480 0
DWIDTH 8 0
BBX 8 16 0 -2
BITMAP
00
00
04
04
04
44
28
18
14
12
20
20
40
80
00
00
ENDCHAR
STARTCHAR d3
ENCODING 211
SWIDTH 480 0
DWIDTH 8 0
BBX 8 16 0 -2
BITMAP
00
00
00
7e
10
10
10
fe
10
10
10
10
10
0e
00
00
ENDCHAR
STARTCHAR d4
ENCODING 212
SWIDTH 480 0
DWIDTH 8 0
BBX 8 16 0 -2
BITMAP
00
00
40
40
40
fe
22
24
28
20
20
10
10
10
00
00
ENDCHAR
STARTCHAR d5
ENCODING 213
SWIDTH 480 0
DWIDTH 8 0
BBX 8 16 0 -2
BITMAP
00
00
00
78
08
08
08
08
08
08
08
08
08
fe
00
00
ENDCHAR
STARTCHAR d6
ENCODING 214
SWIDTH 480 0
DWIDTH 8 0
BBX 8 16 0 -2
BITMAP
00
00
00
7e
02
02
02
02
7e
02
02
02
02
7e
00
00
ENDCHAR
STARTCHAR d7
ENCODING 215
SWIDTH 480 0
DWIDTH 8 0
BBX 8 16 0 -2
BITMAP
00
00
7c
00
00
fe
02
02
02
04
04
08
10
60
00
00
ENDCHAR
STARTCHAR d8
ENCODING 216
SWIDTH 480 0
DWIDTH 8 0
BBX 8 16 0 -2
BITMAP
00
00
00
42
42
42
42
42
42
02
04
04
08
30
00
00
ENDCHAR
STARTCHAR d9
ENCODING 217
SWIDTH 480 0
DWIDTH 8 0
BBX 8 16 0 -2
BITMAP
00
00
08
48
48
48
48
48
48
4a
4a
8c
8c
88
00
00
ENDCHAR
STARTCHAR da
ENCODING 218
SWIDTH 480 0
DWIDTH 8 0
BBX 8 16 0 -2
BITMAP
00
00
40
40
40
40
42
42
44
44
48
50
60
40
00
00
ENDCHAR
STARTCHAR db
ENCODING 219
SWIDTH 480 0
DWIDTH 8 0
BBX 8 16 0 -2
BITMAP
00
00
00
fe
82
82
82
82
82
82
82
82
82
fe
00
00
ENDCHAR
STARTCHAR dc
ENCODING 220
SWIDTH 480 0
DWIDTH 8 0
BBX 8 16 0 -2
BITMAP
00
00
00
fe
82
82
02
02
02
02
04
04
08
30
00
00
ENDCHAR
STARTCHAR dd
ENCODING 221
SWIDTH 480 0
DWIDTH 8 0
BBX 8 16 0 -2
BITMAP
00
00
00
c0
22
02
02
02
04
04
08
08
30
c0
00
00
ENDCHAR
STARTCHAR de
ENCODING 222
SWIDTH 480 0
DWIDTH 8 0
BBX 8 16 0 -2
BITMAP
00
20
90
48
20
00
00
00
00
00
00
00
00
00
00
00
ENDCHAR
STARTCHAR df
ENCODING 223
SWIDTH 480 0
DWIDTH 8 0
BBX 8 16 0 -2
BITMAP
00
60
90
90
60
00
00
00
00
00
00
00
00
00
00
00
ENDCHAR
STARTCHAR e0
ENCODING 224
SWIDTH 480 0
DWIDTH 8 0
BBX 8 16 0 -2
BITMAP
00
20
20
fc
20
20
2e
44
40
40
40
90
a0
9e
00
00
ENDCHAR
STARTCHAR e1
ENCODING 225
SWIDTH 480 0
DWIDTH 8 0
BBX 8 16 0 -2
BITMAP
00
20
20
fe
20
20
40
7c
c2
82
02
02
0c
70
00
00
ENDCHAR
STARTCHAR e2
ENCODING 226
SWIDTH 480 0
DWIDTH 8 0
BBX 8 16 0 -2
BITMAP
00
00
38
c4
02
02
02
02
02
02
02
04
08
30
00
00
ENDCHAR
STARTCHAR e3
ENCODING 227
SWIDTH 480 0
DWIDTH 8 0
BBX 8 16 0 -2
BITMAP
00
00
fe
08
10
10
20
20
20
20
20
20
10
0c
00
00
ENDCHAR
STARTCHAR e4
ENCODING 228
SWIDTH 480 0
DWIDTH 8 0
BBX 8 16 0 -2
BITMAP
00
40
40
20
20
26
18
20
40
80
80
80
40
3e
00
00
ENDCHAR
STARTCHAR e5
ENCODING 229
SWIDTH 480 0
DWIDTH 8 0
BBX 8 16 0 -2
BITMAP
00
20
20
f8
22
22
41
45
44
44
9c
a6
a5
18
00
00
ENDCHAR
STARTCHAR e6
ENCODING 230
SWIDTH 480 0
DWIDTH 8 0
BBX 8 16 0 -2
BITMAP
00
00
80
9e
84
80
80
80
80
80
90
a0
a0
9e
00
00
ENDCHAR
STARTCHAR e7
ENCODING 231
SWIDTH 480 0
DWIDTH 8 0
BBX 8 16 0 -2
BITMAP
00
08
48
48
3c
4a
4a
aa
92
92
96
ab
aa
44
00
00
ENDCHAR
STARTCHAR e8
ENCODING 232
SWIDTH 480 0
DWIDTH 8 0
BBX 8 16 0 -2
BITMAP
00
20
20
2c
f2
22
22
22
62
62
a2
ae
33
2c
00
00
ENDCHAR
STARTCHAR e9
ENCODING 233
SWIDTH 480 0
DWIDTH 8 0
BBX 8 16 0 -2
BITMAP
00
00
00
38
54
54
92
92
92
92
92
a2
a4
44
00
00
ENDCHAR
STARTCHAR ea
ENCODING 234
SWIDTH 480 0
DWIDTH 8 0
BBX 8 16 0 -2
BITMAP
00
04
84
be
84
84
84
84
84
84
9c
a6
a4
98
00
00
ENDCHAR
STARTCHAR eb
ENCODING 235
SWIDTH 480 0
DWIDTH 8 0
BBX 8 16 0 -2
BITMAP
00
00
10
e0
24
44
46
44
84
84
84
84
88
70
00
00
ENDCHAR
STARTCHAR ec
ENCODING 236
SWIDTH 480 0
DWIDTH 8 0
BBX 8 16 0 -2
BITMAP
00
00
30
08
08
10
24
a4
92
8a
8a
8a
aa
30
00
00
ENDCHAR
STARTCHAR ed
ENCODING 237
SWIDTH 480 0
DWIDTH 8 0
BBX 8 16 0 -2
BITMAP
00
00
00
20
20
50
50
88
88
04
04
02
02
00
00
00
ENDCHAR
STARTCHAR ee
ENCODING 238
SWIDTH 480 0
DWIDTH 8 0
BBX 8 16 0 -2
BITMAP
00
00
be
84
84
be
84
84
84
84
9c
a6
a4
98
00
00
ENDCHAR
STARTCHAR ef
ENCODING 239
SWIDTH 480 0
DWIDTH 8 0
BBX 8 16 0 -2
BITMAP
00
10
10
fe
10
10
fe
10
10
10
70
9c
92
60
00
00
ENDCHAR
STARTCHAR f0
ENCODING 240
SWIDTH 480 0
DWIDTH 8 0
BBX 8 16 0 -2
BITMAP
00
00
70
10
10
12
12
3e
53
92
92
a2
a4
44
00
00
ENDCHAR
STARTCHAR f1
ENCODING 241
SWIDTH 480 0
DWIDTH 8 0
BBX 8 16 0 -2
BITMAP
00
20
20
fc
20
24
62
a1
a0
a0
a2
a2
62
1c
00
00
ENDCHAR
STARTCHAR f2
ENCODING 242
SWIDTH 480 0
DWIDTH 8 0
BBX 8 16 0 -2
BITMAP
00
10
10
10
98
b4
52
52
52
b2
92
a2
a4
44
00
00
ENDCHAR
STARTCHAR f3
ENCODING 243
SWIDTH 480 0
DWIDTH 8 0
BBX 8 16 0 -2
BITMAP
00
10
10
fc
20
20
a0
f8
40
44
42
42
42
3c
00
00
ENDCHAR
STARTCHAR f4
ENCODING 244
SWIDTH 480 0
DWIDTH 8 0
BBX 8 16 0 -2
BITMAP
00
10
48
48
3c
ea
2a
22
24
10
10
10
10
10
00
00
ENDCHAR
STARTCHAR f5
ENCODING 245
SWIDTH 480 0
DWIDTH 8 0
BBX 8 16 0 -2
BITMAP
00
10
28
28
bc
aa
ea
aa
aa
aa
9c
08
08
10
00
00
ENDCHAR
STARTCHAR f6
ENCODING 246
SWIDTH 480 0
DWIDTH 8 0
BBX 8 16 0 -2
BITMAP
00
10
10
10
1e
10
10
10
10
10
70
9c
92
60
00
00
ENDCHAR
STARTCHAR f7
ENCODING 247
SWIDTH 480 0
DWIDTH 8 0
BBX 8 16 0 -2
BITMAP
00
70
0c
00
40
40
40
bc
c2
82
02
02
0c
70
00
00
ENDCHAR
STARTCHAR f8
ENCODING 248
SWIDTH 480 0
DWIDTH 8 0
BBX 8 16 0 -2
BITMAP
00
00
4c
52
92
a2
a2
c2
42
42
04
04
08
30
00
00
ENDCHAR
STARTCHAR f9
ENCODING 249
SWIDTH 480 0
DWIDTH 8 0
BBX 8 16 0 -2
BITMAP
00
00
7c
04
08
10
20
78
c4
82
02
32
4c
38
00
00
ENDCHAR
STARTCHAR fa
ENCODING 250
SWIDTH 480 0
DWIDTH 8 0
BBX 8 16 0 -2
BITMAP
00
20
20
2c
f2
22
22
22
64
64
a4
a4
23
20
00
00
ENDCHAR
STARTCHAR fb
ENCODING 251
SWIDTH 480 0
DWIDTH 8 0
BBX 8 16 0 -2
BITMAP
00
00
7c
04
08
10
20
78
c4
82
02
02
0c
70
00
00
ENDCHAR
STARTCHAR fc
ENCODING 252
SWIDTH 480 0
DWIDTH 8 0
BBX 8 16 0 -2
BITMAP
00
20
20
2c
f2
22
22
22
62
62
a2
a2
24
28
00
00
ENDCHAR
STARTCHAR fd
ENCODING 253
SWIDTH 480 0
DWIDTH 8 0
BBX 8 16 0 -2
BITMAP
00
20
20
20
20
40
40
60
52
52
92
92
92
8c
00
00
ENDCHAR
STARTCHAR fe
ENCODING 254
SWIDTH 480 0
DWIDTH 8 0
BBX 8 16 0 -2
BITMAP
00
00
00
00
00
00
00
00
00
00
00
00
00
00
00
00
ENDCHAR
STARTCHAR ff
ENCODING 255
SWIDTH 480 0
DWIDTH 8 0
BBX 8 16 0 -2
BITMAP
00
00
00
00
00
00
00
00
00
00
00
00
00
00
00
00
ENDCHAR
ENDFONT
